<svg xmlns="http://www.w3.org/2000/svg" xmlns:xlink="http://www.w3.org/1999/xlink" width="60px" height="60px" viewBox="0 0 60 60" version="1.1">
    <title>poi_shootingrange_7</title>
    <g id="poi_shootingrange_7" stroke="none" stroke-width="1" fill="none" fill-rule="evenodd">
        <g id="Group" transform="translate(6.000000, 6.000000)" stroke="#FFFFFF" stroke-width="6">
            <path d="M24.0015,0 L23.9375,0 C10.6825,0.035 -0.0345,10.809 0.000414515332,24.063 C0.0355,37.297 10.7725,48 23.9985,48 L24.0635,48 C37.3175,47.965 48.0345,37.191 48.0005807,23.937 C47.9645,10.703 37.2275,-0.001 24.0015,0 M24.0025,5 C34.4505,5 42.9725,13.501 43.0005641,23.95 C43.0275,34.427 34.5265,42.972 24.0505,43 L23.9985,43 C13.5505,43 5.0275,34.499 5.00042567,24.05 C4.9865,18.975 6.9505,14.198 10.5295,10.601 C14.1085,7.002 18.8755,5.014 23.9495,5 L24.0015,5 L24.0025,5" id="Fill-1"/>
            <path d="M24.001,10 L23.963,10 C16.231,10.021 9.98,16.305 9.99995214,24.037 C10.021,31.756 16.284,38 23.999,38 L24.037,38 C31.769,37.979 38.021,31.695 38.0000527,23.963 C37.98,16.244 31.716,10 24.001,10 M24.001,10 L24.001,15 C28.95,15 32.987,19.027 33.0000289,23.977 C33.006,26.38 32.076,28.643 30.381,30.347 C28.686,32.052 26.428,32.994 23.999,33 C19.05,33 15.013,28.973 14.9999711,24.023 C14.994,21.62 15.924,19.357 17.619,17.653 C19.314,15.948 21.572,15.006 23.977,15 L24.001,10" id="Fill-4"/>
            <path d="M24,20 L23.989,20 C21.78,20.006 19.994,21.801 19.9999849,24.011 C20.006,26.216 21.795,28 24,28 L24.011,28 C26.22,27.994 28.006,26.199 28.0000151,23.989 C27.994,21.784 26.205,20 24,20" id="Fill-6"/>
        </g>
        <g id="Group" transform="translate(6.000000, 6.000000)" fill="#646464">
            <path d="M24.0015,0 L23.9375,0 C10.6825,0.035 -0.0345,10.809 0.000414515332,24.063 C0.0355,37.297 10.7725,48 23.9985,48 L24.0635,48 C37.3175,47.965 48.0345,37.191 48.0005807,23.937 C47.9645,10.703 37.2275,-0.001 24.0015,0 M24.0025,5 C34.4505,5 42.9725,13.501 43.0005641,23.95 C43.0275,34.427 34.5265,42.972 24.0505,43 L23.9985,43 C13.5505,43 5.0275,34.499 5.00042567,24.05 C4.9865,18.975 6.9505,14.198 10.5295,10.601 C14.1085,7.002 18.8755,5.014 23.9495,5 L24.0015,5 L24.0025,5" id="Fill-1"/>
            <path d="M24.001,10 L23.963,10 C16.231,10.021 9.98,16.305 9.99995214,24.037 C10.021,31.756 16.284,38 23.999,38 L24.037,38 C31.769,37.979 38.021,31.695 38.0000527,23.963 C37.98,16.244 31.716,10 24.001,10 M24.001,10 L24.001,15 C28.95,15 32.987,19.027 33.0000289,23.977 C33.006,26.38 32.076,28.643 30.381,30.347 C28.686,32.052 26.428,32.994 23.999,33 C19.05,33 15.013,28.973 14.9999711,24.023 C14.994,21.62 15.924,19.357 17.619,17.653 C19.314,15.948 21.572,15.006 23.977,15 L24.001,10" id="Fill-4"/>
            <path d="M24,20 L23.989,20 C21.78,20.006 19.994,21.801 19.9999849,24.011 C20.006,26.216 21.795,28 24,28 L24.011,28 C26.22,27.994 28.006,26.199 28.0000151,23.989 C27.994,21.784 26.205,20 24,20" id="Fill-6"/>
        </g>
    </g>
</svg>