<svg xmlns="http://www.w3.org/2000/svg" xmlns:xlink="http://www.w3.org/1999/xlink" width="14px" height="14px" viewBox="0 0 14 14" version="1.1">
    <title>poi_trashbin_1_i</title>
    <g id="poi_trashbin_1_i" stroke="none" stroke-width="1" fill="none" fill-rule="evenodd">
        <g transform="translate(1.500000, 1.000000)" id="Path">
            <path d="M0.81583,1.10554799 C1.16835,0.400507989 1.90212,-0.0316970113 2.68967,0.00181798874 L6.08094,0.146127989 C6.55915,0.166477989 7.5677,0.339877989 7.93609,1.32222799 L7.93793,1.32717799 L8.32891,1.13168799 C9.0699,0.761217989 9.9708,1.06154799 10.3413,1.80249799 C10.7118,2.54343799 10.4115,3.44442799 9.6705,3.81490799 L8.9152,4.19257799 L8.7107,7.05564799 C8.7037,7.15257799 8.6828,7.24699799 8.6493,7.33628799 C9.1636,7.69817799 9.4997,8.29637799 9.4997,8.97307799 C9.4997,10.077598 8.6043,10.972998 7.49976,10.972998 C7.12226,10.972998 6.76918,10.868398 6.46793,10.686598 C6.28345,10.867698 6.03291,10.972998 5.76738,10.972998 L3.84701,10.972998 C2.86936,10.972998 2.035,10.266198 1.87428,9.30189799 L1.14583,4.93117799 C0.48833,4.77203799 0,4.17967799 0,3.47326799 C0,3.00204799 0.21729,2.58157799 0.55714,2.30659799 C0.46766,2.05348799 0.48282,1.77156799 0.60555,1.52611799 L0.81583,1.10554799 Z" fill="#FFFFFF"/>
            <path d="M7,1.99997799 L1.5,1.99997799 L1.71029,1.57939799 C1.88655,1.22686799 2.25345,1.01075799 2.64723,1.02751799 L6.03862,1.17182799 C6.43959,1.18889799 6.79152,1.44402799 6.93244,1.81980799 L7,1.99997799 Z" fill="#D91928" fill-rule="nonzero"/>
            <path d="M9.4472,2.27636799 C9.5707,2.52335799 9.4706,2.82369799 9.2236,2.94718799 L7.95859,3.57969799 L7.71348,7.01123799 C7.64334,7.00379799 7.57212,6.99997799 7.5,6.99997799 C6.39543,6.99997799 5.5,7.89540799 5.5,8.99997799 C5.5,9.36429799 5.59739,9.70579799 5.76756,9.99999799 L3.84713,9.99999799 C3.35829,9.99999799 2.9411,9.64659799 2.86073,9.16439799 L2,3.99997799 L1.5,3.99997799 C1.22386,3.99997799 1,3.77611799 1,3.49997799 C1,3.22383799 1.22386,2.99997799 1.5,2.99997799 L6.88197,2.99997799 L8.7764,2.05275799 C9.0234,1.92926799 9.3237,2.02937799 9.4472,2.27636799 Z" fill="#D91928" fill-rule="nonzero"/>
            <path d="M7.5,9.99999799 C8.05228,9.99999799 8.5,9.55229799 8.5,8.99997799 C8.5,8.44768799 8.05228,7.99997799 7.5,7.99997799 C6.94772,7.99997799 6.5,8.44768799 6.5,8.99997799 C6.5,9.55229799 6.94772,9.99999799 7.5,9.99999799 Z" fill="#D91928" fill-rule="nonzero"/>
        </g>
    </g>
</svg>